Patient4_TMGait_0pt7_01_right_01_EMG.mot
version=1
nRows=37
nColumns=33
inDegrees=no
endheader
time	1LAddLong	2LGlutMax	3LGlutMed	4LIliopsoas	5LSemiMemb	6LBicFemLong	7LRecFem	8LVastMed	9LVastLat	10LGasMed	11LTibAnt	12lTibPost	13LPeroneusLong	14LSol	15LExtDigLong	16LFlexDigLong	17RAddLong	18RGlutMax	19RGlutMed	20RIliopsoas	21RSemiMemb	22RBicFemLong	23RRecFem	24RVastMed	25RVastLat	26RGasMed	27RTibAnt	28RTibPost	29RPeroneusLong	30RSol	31RExtDigLong	32RFlexDigLong
1.365	-0.000763	0.32913	0.029144	0.033569	0.023193	-0.036469	-0.038757	0.014038	-0.2359	0.010834	0.1001	0.003052	-0.043945	-0.12054	0.093536	0.001678	0.012054	-0.072784	0.057373	0.11231	0.06424	0.083923	-0.23163	-0.011902	0.027313	-0.001984	-0.97885	-0.001678	0.01358	-0.13901	-0.002747	-0.012817
1.366	-0.007019	0.35904	-0.048676	0.030212	-0.015106	0.16159	-0.041046	0.016785	-0.11322	-0.010834	0.099182	0.003357	-0.010986	-0.066528	0.027008	0.011139	0.010529	-0.086823	-0.042114	0.045471	0.095367	0.13199	-0.25436	0.010529	0.016022	0.004883	-0.41779	0.003662	0.11353	-0.27298	-0.003662	-0.011749
1.367	-0.00824	0.36041	0.000763	0.008392	-0.02121	0.25375	-0.07782	0.015564	0.028687	-0.019989	-0.004883	0.002899	0.046082	0.03067	0.25772	-0.000916	0.001373	-0.00946	0.1297	-0.024567	0.084839	0.073242	-0.28824	0.027313	0.00946	0.011292	0.21576	0.001984	0.1088	-0.21057	-0.002136	-0.005341
1.368	-0.01236	0.28473	0.006256	0.011749	-0.009613	0.3183	-0.055389	0.010529	0.14069	-0.014801	-0.020752	0.004883	0.049438	0.11429	0.27603	0.007629	0.014801	-0.029449	0.11246	-0.068207	0.099182	0.060272	-0.30838	0.009308	0.014801	0.001068	0.35172	0.00412	0.021362	-0.13519	-0.00061	-0.011902
1.369	-0.013275	0.31311	0.071869	0.009918	-0.04364	0.3154	-0.016174	0.000153	0.24536	-0.012665	-0.001984	-0.002899	0.089111	0.081177	0.13092	-0.003815	0.005798	-0.076294	0.09613	-0.079193	0.057526	0.019836	-0.34058	-0.015717	-0.000916	-0.011902	0.066071	0.003357	-0.068665	-0.10071	0	-0.00824
1.37	-0.01297	0.30563	0.10788	0.008698	-0.037537	0.16296	0.041046	-0.010071	0.39536	-0.034485	-0.13733	0.002289	0.14542	0.0383	0.018921	0.004578	0.003815	-0.070953	0.10361	-0.015869	0.027313	-0.029907	-0.3566	-0.005646	0.009613	-0.011139	-0.16251	0.001984	0.31113	-0.16846	0.004425	-0.007019
1.371	-0.010071	0.30991	0.028534	0.003815	-0.075531	0.21927	0.029602	-0.020142	0.29404	-0.036316	-0.12604	0.001831	0.12421	0.018921	-0.005188	0.003204	0.018005	-0.054169	0.097504	0.001221	0.008392	-0.051727	-0.30914	0.023041	0.015869	-0.007935	-0.27603	0.001984	0.77454	-0.15259	-0.002289	-0.004578
1.372	0.002747	0.31082	0.036316	0.012665	-0.055237	0.13626	0.007019	-0.030975	0.18234	-0.008087	0.076447	-0.002136	0.039673	0.0914	0.17609	-0.002747	0.017395	-0.071259	0.047455	0.077972	0.005188	-0.043488	-0.32822	-0.008392	0.006256	0.003204	-0.37491	0.00473	0.62897	-0.10742	-0.002136	0.000763
1.373	0.032043	0.30868	0.045166	-0.002289	0.17685	-0.05249	-0.001678	-0.041962	-0.004272	0.000305	0.072479	0.005646	-0.029449	0.097656	0.35019	-0.002441	0.011902	-0.11917	0.034027	0.041504	-0.00061	-0.12512	-0.33768	-0.000305	0.00412	0.014191	0.028381	-0.004272	-0.35431	-0.31082	-0.002441	0.002747
1.374	0.033569	0.30991	0.054321	-0.012512	0.21225	-0.2507	0.043335	-0.028687	-0.090637	-0.024872	0.011292	-0.000153	0.026703	0.063782	0.006561	-0.00824	0.009766	-0.057678	-0.0383	-0.11414	-0.004272	-0.14496	-0.31998	0.011902	0.009003	0.021362	0.27268	0.003967	-1.3579	-0.33386	-0.002441	-0.001831
1.375	0.024567	0.33752	0.052795	-0.011139	0.13672	-0.49301	0.074921	-0.006104	-0.1149	-0.034332	-0.056915	-0.001831	0.079803	0.030212	-0.026093	-0.005493	-0.00412	0.011292	-0.081635	-0.10956	-0.017548	-0.14694	-0.38101	0.02121	0.019531	0.016022	0.30456	0.000763	-1.0646	-0.22873	-0.001831	0.002441
1.376	-0.00412	0.35492	0.019836	-0.00885	0.061493	-0.34347	0.033875	0.006409	0.021515	-0.035706	0.003052	0.005035	0.077972	0.054016	-0.43549	0	0.012054	0.028381	-0.069427	-0.088348	-0.039825	-0.086365	-0.35111	0.00473	0.000916	0.004883	0.3331	-0.001526	-0.086365	0.007019	-0.000763	-0.009766
1.377	-0.019684	0.36499	-0.036163	-0.009766	-0.003357	-0.1294	0.01358	0.011902	-0.078735	-0.021667	0.036163	-0.001984	0.007477	-0.003357	-0.050964	0.006561	0.01709	0.031586	-0.091858	-0.04425	-0.07431	0.017395	-0.33234	-0.037384	0.003815	-0.002441	0.3566	-0.002289	0.71823	0.1918	-0.002136	-0.009766
1.378	-0.033569	0.41107	-0.092621	0.012665	-0.046082	0.049744	-0.051117	0.028381	-0.27237	-0.015717	0.10605	-0.005188	0.11017	-0.041656	-0.1265	-0.004883	0.023651	-0.002899	-0.10712	0.047455	-0.10773	0.11719	-0.35996	-0.03479	0.019073	-0.007629	0.37674	-0.000153	0.18158	0.24124	-0.002289	-0.010529
1.379	-0.033417	0.41107	-0.1062	0.00412	-0.077515	0.28625	-0.027771	0.025482	-0.42084	0.009155	0.13901	0.009918	0.23102	-0.04364	0.089722	0.005646	-0.012054	-0.071259	-0.037384	0.059204	-0.12833	0.20462	-0.36529	0.025635	0.040131	-0.001221	0.18631	-0.001373	-0.33081	0.13519	-0.002441	-0.009155
1.38	-0.028229	0.45548	0.090332	-0.000153	-0.06897	0.39017	-0.0383	0.023956	-0.42358	0.013885	0.12421	0.004272	0.37125	-0.026703	0.13672	-0.019073	-0.044556	-0.071564	0.042267	0.071106	0.056458	0.27527	-0.36011	0.04425	0.048676	0.000458	0.092773	0.005341	-0.28061	0.090179	-0.001678	-0.012665
1.381	-0.027618	0.37521	0.15839	0.007629	-0.044403	0.45868	-0.085297	0.009308	-0.22186	-0.009766	-0.006104	0.011597	0.10101	0.005493	-0.091858	0.001221	-0.019379	-0.06073	0.034943	0.026703	0.16144	0.15472	-0.34134	0.009613	0.04364	-0.004425	-0.013733	0.000305	-0.05249	0.066376	-0.001221	-0.012207
1.382	-0.036163	0.3154	0.11353	0.000458	-0.077209	0.3183	-0.034637	0.021362	-0.023499	-0.007019	-0.038757	0.003357	-0.1001	0.014648	0.2121	0.007324	0.011597	-0.019684	0.011292	0.017548	0.14404	-0.050201	-0.32959	-0.062714	0.019989	0.000153	0.009918	-0.001526	-0.16312	0.045471	-0.002289	-0.009155
1.383	-0.051727	0.29388	0.15366	0.000153	-0.072784	0.16037	0.061951	0.035858	0.066376	-0.029755	-0.1326	0.003815	0.016785	0.001984	0.25757	0.005646	0.033722	0.000916	-0.039215	0.027771	0.11841	-0.15945	-0.30914	-0.080261	0.023804	-0.003662	-0.24262	-0.001526	-0.47333	0.11978	-0.00351	-0.003204
1.384	-0.042267	0.30014	0.23712	-0.002441	-0.009918	0.25238	0.021057	0.039825	0.07309	-0.028687	-0.20905	0.003815	-0.15884	0.06134	-0.19959	0.00946	0.047455	-0.018768	-0.096893	0.009918	0.06958	-0.1915	-0.32349	-0.058289	0.018005	0.000305	-0.18387	-0.002441	0.03891	0.19302	0.00061	-0.002441
1.385	-0.046387	0.2945	0.11932	-0.004578	0.03006	0.31357	0.058441	0.014191	0.049896	0.005798	-0.16144	0.006256	-0.19287	0.082092	-0.35217	-0.003357	0.028839	-0.010376	-0.037537	0.003357	0.09613	-0.17639	-0.33844	-0.013733	0.0177	0	-0.22461	0	0.33218	0.17044	-0.001831	-0.00473
1.386	-0.00473	0.35736	0.18402	-0.008545	0.095825	0.2475	-0.067749	-0.005798	0.00351	-0.020447	-0.04303	0.010071	0.45303	0.066223	-0.24063	0.009003	0.021057	0.005951	-0.053864	-0.008392	0.090637	-0.1268	-0.34607	-0.015411	0.001068	-0.004578	-0.28839	-0.002441	0.28595	0.12787	-0.001984	-0.012054
1.387	0.01709	0.37399	0.24216	-0.019226	0.10956	-0.33707	-0.11948	-0.015106	-0.023193	-0.045624	0.070648	0.009918	0.3801	0.095978	-0.2095	-0.000763	0.017395	-0.019989	-0.05249	-0.1001	0.042267	-0.042877	-0.37399	-0.016937	0.006866	-0.017242	-0.054779	0.000305	-0.018311	0.067139	0.000305	-0.010529
1.388	0.028076	0.36407	0.16403	-0.013733	0.13779	-0.68573	-0.065308	-0.032806	-0.057526	-0.053406	0.019989	0.00412	-0.2243	0.092468	-0.17425	-0.000153	-0.001831	0.054169	-0.040741	-0.12985	-0.047607	0.007935	-0.38635	-0.005646	0.011444	-0.029449	0.082397	-0.00061	-0.17319	0.048828	-0.007172	-0.003815
1.389	0.042419	0.31723	0.072327	0.026398	0.10971	-0.48386	-0.10361	-0.041656	0.041351	-0.021667	0.020905	0.003662	0.091705	0.037994	-0.080566	-0.012054	-0.041962	0.02655	-0.078735	-0.21713	0.071106	-0.09079	-0.3627	0.002594	0.010529	-0.028687	0.10086	-0.002136	-0.14481	-0.025024	0.002136	-0.01297
1.39	0.051117	0.23285	0.037384	0.039825	0.10498	-0.18356	-0.053864	-0.025177	-0.0737	-0.027466	-0.034943	0.015564	0.52826	-0.049591	-0.02594	-0.005646	-0.053406	0.047455	-0.10757	-0.1683	0.17838	-0.15045	-0.35919	-0.034332	0.010529	-0.012817	0.051575	-0.005646	-0.067444	-0.17014	-0.00061	-0.00351
1.391	0.027313	0.14481	-0.038605	0.033112	0.065002	-0.002899	-0.004883	0.015717	-0.066223	-0.02655	-0.06485	0.015106	0.38589	-0.11536	-0.011597	0.007477	-0.039978	0.014191	-0.13519	-0.048676	0.19608	-0.15915	-0.38605	-0.034332	0.001526	0.007782	0.14465	-0.010376	-0.14694	-0.26871	-0.002441	-0.00946
1.392	0.013123	0.10925	-0.17563	0.012054	0.001068	0.14755	0.036469	0.015106	-0.06485	-0.001373	-0.063019	0.021057	-0.5722	-0.14084	-0.034943	-0.00885	-0.02655	0.052795	-0.10941	0.05127	0.15686	-0.15808	-0.40695	-0.039978	0.00824	-0.003662	0.20905	-0.007019	-0.35156	-0.33493	-0.001526	-0.013428
1.393	0.010834	0.078278	-0.2243	0.018616	-0.076141	0.14343	0.005341	-0.006866	-0.12207	0.002441	-0.041351	0.014038	-0.60608	-0.099792	-0.014648	-0.022736	-0.008545	0.059662	-0.080872	0.1564	0.07843	-0.1294	-0.35767	-0.037231	-0.013428	0.003204	0.2124	-0.000916	-0.32791	-0.032959	0.00061	-0.014343
1.394	0.023804	0.026093	-0.032043	-0.000305	-0.14618	0.17273	-0.005188	-0.014496	-0.11444	0.027466	-0.061798	0.01297	0.011749	-0.10712	-0.016632	-0.010834	0.006561	-0.000153	-0.052032	0.039978	0.039825	-0.12497	-0.35324	-0.026398	0.015411	0.009918	-0.00351	0.00473	-0.17288	0.06958	-0.002289	-0.009613
1.395	0.021515	0.037231	0.050507	0.010681	-0.10788	0.21011	0.062561	-0.028839	-0.14008	0.011444	-0.031891	0.013885	-0.030212	0.027771	0.07843	-0.018158	0.024261	0.036621	-0.03952	-0.12146	-0.009003	-0.13596	-0.3714	0.001221	0.000153	0.014038	-0.18478	-0.001221	-0.033112	0.059967	-0.001068	-0.010223
1.396	0.0177	0.032501	0.022888	0.010986	-0.013733	0.11169	0.11398	-0.01236	-0.23422	0.010529	0.004272	0.015869	-0.11841	0.026398	0.13199	-0.017853	0.075531	0.03479	-0.059814	-0.085602	0.025177	-0.011902	-0.35294	-0.010681	-0.000763	0.002441	-0.065765	0.001068	0.026398	0.11673	-0.00061	-0.009155
1.397	0.018616	0.023956	-0.090942	0.001221	-0.077209	0.077515	0.12253	-0.011749	-0.31082	0.040741	0.00824	0.01297	-0.089111	-0.050964	0.13062	-0.01358	0.11078	0.085907	-0.11185	0.094147	0.058136	0.095978	-0.32516	-0.005341	0.005951	-0.014191	-0.091248	-0.001373	0.093689	0.082855	-0.002289	-0.02121
1.398	0.018005	0.011749	-0.060577	-0.011292	-0.033875	0.027618	0.059967	0.002594	-0.25879	0.014038	0.082397	0.005646	-0.080719	-0.057831	0.16388	-0.02121	0.15091	0.097351	-0.17197	0.25162	0.0737	0.063019	-0.26367	-0.038452	-0.014648	-0.012054	-0.24323	0.003357	0.26276	0.10223	-0.002747	-0.017853
1.399	0.023193	0.027466	0.09079	-0.002747	0.065308	-0.41199	-0.069885	0.033875	-0.16937	0.01236	0.052185	0.011749	-0.045013	-0.00473	0.14816	-0.006256	0.090179	0.071716	-0.094299	0.38498	0.048218	0.0177	-0.29633	-0.060425	0.008087	-0.007782	-0.12695	-0.006561	0.16754	0.001221	0.002594	-0.010071
1.4	0.013428	0.058441	0.15869	-0.008087	0.13611	-0.64117	-0.11917	0.010681	0.014496	-0.021362	0.028076	0.016479	0.03418	0.084534	0.029144	-0.00061	0.025787	0.10056	-0.044403	0.27741	0.049591	0.008087	-0.30792	-0.041046	0.012817	-0.004578	-0.23025	-0.005493	0.075226	-0.16876	-0.003357	-0.010376
1.401	0.011292	0.11063	0.087433	0.009003	0.096283	-0.66223	-0.06546	-0.009003	0.23331	-0.023193	0.26886	0.009155	-0.014801	0.11902	0.029449	-0.014191	-0.002136	0.054779	-0.046082	0.097351	0.041504	0.012512	-0.28244	-0.036011	0.007477	-0.010223	-0.009308	-0.005798	-0.39581	-0.19836	-0.002136	-0.012665
